# xmcd
# 
# Track frame offsets:
#     150
#     50282
#     75115
#     149447
#     195465
#     211072
#     255722
#     285880
# 
# Disc length: 4170
# 
# Revision: 1
# Processed by: cddbd v1.5.2PL0 Copyright (c) Steve Scherf et al.
# Submitted via: BonkEnc v1.0.8
# 
DISCID=60104808
DTITLE=Charles Ford Band - As Real As It Gets
DYEAR=1983
DGENRE=Blues
TTITLE0=Gibson Creek Shuffle
TTITLE1=Look Over Yonders Walls
TTITLE2=Driftin' Blues
TTITLE3=Killer Joe
TTITLE4=All These Blues
TTITLE5=40 Days, 40 Nights
TTITLE6=That Will Never Do
TTITLE7=All Your Love
EXTD=
EXTT0=
EXTT1=
EXTT2=
EXTT3=
EXTT4=
EXTT5=
EXTT6=
EXTT7=
PLAYORDER=
